<svg width="64" height="64" viewBox="0 0 64 64" fill="none" xmlns="http://www.w3.org/2000/svg">
<path d="M21.9983 28.0009C21.369 31.0009 22.9983 34.982 22.9983 35.7441C22.9983 36.5062 19.0671 38.7693 17.9983 39.5009C16.9295 40.2324 16.4983 32.5009 16.4983 32.5009C13.4982 32.5009 12.9983 38.0009 12.9983 38.0009C12.9983 38.0009 10.7536 37.2608 9.99826 33.5009C9.48799 30.9609 10.2967 25.412 10.4983 24.0009C10.9983 20.5009 11.4983 12.5009 17.9983 8.50087C24.4983 4.50087 40.9983 4.50087 44.9983 5.50087C54.8918 7.97426 56.2162 21.4874 52.9983 26.0009C47.9983 31.5009 33.9983 25.0009 29.4983 25.0009C24.9983 25.0009 22.6275 25.0009 21.9983 28.0009Z" fill="#1B0B47"/>
</svg>
