<svg width="64" height="64" viewBox="0 0 64 64" fill="none" xmlns="http://www.w3.org/2000/svg">
<g clip-path="url(#clip0_164_867)">
<path d="M43 37.5C43 38.3284 42.3284 39 41.5 39C40.6716 39 40 38.3284 40 37.5L40 36.2727C40 36.1221 40.1221 36 40.2727 36L42.7273 36C42.8779 36 43 36.1221 43 36.2727L43 37.5Z" fill="#1B0B47"/>
<path d="M33 37.5C33 38.3284 32.3284 39 31.5 39C30.6716 39 30 38.3284 30 37.5L30 36.2727C30 36.1221 30.1221 36 30.2727 36L32.7273 36C32.8779 36 33 36.1221 33 36.2727L33 37.5Z" fill="#1B0B47"/>
<line x1="29.5" y1="36.5" x2="33.5" y2="36.5" stroke="#1B0B47" stroke-linecap="round"/>
<line x1="39.5" y1="36.5" x2="43.5" y2="36.5" stroke="#1B0B47" stroke-linecap="round"/>
</g>
<defs>
<clipPath id="clip0_164_867">
<rect width="64" height="64" rx="32" fill="white"/>
</clipPath>
</defs>
</svg>
