<svg xmlns="http://www.w3.org/2000/svg" width="64" height="64" viewBox="0 0 64 64" fill="none">



    
<g id="😊 Heads" clip-path="url(#clip0_92_380)">
<g id="Head">
<circle id="Ear" cx="18" cy="37" r="5" fill="#F0BD70"/>
<path id="Neck" d="M18 41H35V65.8705C35 65.8705 31.3571 68 26.5 68C21.6429 68 18 64.5226 18 64.5226V41Z" fill="#F0BD70"/>
<path id="Shadow" d="M34.8114 53.1122C34.8114 58.4968 33.9402 57.9871 28.2776 57.9871C22.6151 57.9871 20.0016 53.6219 20.0016 48.2373C20.0016 42.8526 19.7867 38 24.3574 38C37.2799 38.4762 34.8114 47.7275 34.8114 53.1122Z" fill="#E9B05B"/>
<path id="Face" d="M45.8874 36.0992C45.8874 45.0216 44.5016 55.9932 33.5016 55.9932C22.5015 55.9932 17.43 45.0216 17.43 36.0992C15.0016 25.5 15.5015 13 32.0016 13C48.5016 13 45.8874 27.1767 45.8874 36.0992Z" fill="#FFCB7E"/>
<rect id="Nose" x="36" y="41" width="3" height="2" rx="1" fill="#F0BD70"/>
</g>
</g>
<defs>
<clipPath id="clip0_92_380">
<rect width="64" height="64" fill="white"/>
</clipPath>
</defs>


<path fill-rule="evenodd" clip-rule="evenodd" d="M28.1177 27.4657C35.9142 28.6079 49.5988 30.6128 51 18.0019C52 9.00189 38.5 -1.49811 24 8.00188C14.8908 9.35139 12.611 16.2798 12.0917 22.2557C11.4149 22.9721 11 23.9386 11 25.0019C11 25.5323 11.1033 26.0387 11.2908 26.5019C11.1033 26.9651 11 27.4714 11 28.0019C11 29.1075 11.4486 30.1084 12.1737 30.8324C12.0608 31.2023 12 31.595 12 32.0019C12 34.211 13.7909 36.0019 16 36.0019C18.2091 36.0019 20 34.211 20 32.0019C22.2091 32.0019 24 30.211 24 28.0019C24 27.6571 23.9564 27.3225 23.8744 27.0033C23.9163 27.0024 23.9582 27.0019 24 27.0019C24.9517 27.0019 26.3901 27.2126 28.1177 27.4657Z" fill="#1B0B47"/>

<g clip-path="url(#clip0_164_867)">
<path d="M43 37.5C43 38.3284 42.3284 39 41.5 39C40.6716 39 40 38.3284 40 37.5L40 36.2727C40 36.1221 40.1221 36 40.2727 36L42.7273 36C42.8779 36 43 36.1221 43 36.2727L43 37.5Z" fill="#1B0B47"/>
<path d="M33 37.5C33 38.3284 32.3284 39 31.5 39C30.6716 39 30 38.3284 30 37.5L30 36.2727C30 36.1221 30.1221 36 30.2727 36L32.7273 36C32.8779 36 33 36.1221 33 36.2727L33 37.5Z" fill="#1B0B47"/>
<line x1="29.5" y1="36.5" x2="33.5" y2="36.5" stroke="#1B0B47" stroke-linecap="round"/>
<line x1="39.5" y1="36.5" x2="43.5" y2="36.5" stroke="#1B0B47" stroke-linecap="round"/>
</g>
<defs>
<clipPath id="clip0_164_867">
<rect width="64" height="64" rx="32" fill="white"/>
</clipPath>
</defs>
    

<g clip-path="url(#clip0_159_90)">
<path d="M27.9297 46C27.9297 45.4477 28.3774 45 28.9297 45H38.0725C38.6248 45 39.0725 45.4477 39.0725 46C39.0725 48.7614 36.834 51 34.0725 51H32.9297C30.1683 51 27.9297 48.7614 27.9297 46Z" fill="#66253C"/>
<path fill-rule="evenodd" clip-rule="evenodd" d="M35.7558 50.7081C35.2298 50.8961 34.6631 50.9985 34.0725 50.9985H32.9297C30.2352 50.9985 28.0385 48.8671 27.9336 46.1984C28.6976 45.9125 29.8316 45.9454 30.951 45.9779C31.3066 45.9882 31.6608 45.9985 32.0011 45.9985C34.2103 45.9985 36.0011 47.5655 36.0011 49.4985C36.0011 49.9236 35.9145 50.3311 35.7558 50.7081Z" fill="#B03E67"/>
<path d="M29 45H39V46C39 46.5523 38.5523 47 38 47H30C29.4477 47 29 46.5523 29 46V45Z" fill="white"/>
<path d="M31 45.3C31 45.1343 31.1343 45 31.3 45H32.7C32.8657 45 33 45.1343 33 45.3V47.7C33 47.8657 32.8657 48 32.7 48H31.3C31.1343 48 31 47.8657 31 47.7V45.3Z" fill="#B03E67"/>
</g>
<defs>
<clipPath id="clip0_159_90">
<rect width="64" height="64" fill="white"/>
</clipPath>
</defs>
    
<g clip-path="url(#clip0_166_8)">
<rect x="7" y="60" width="40" height="23" rx="9" fill="#E05A33"/>
<path d="M17 58H36V61C36 61 31 62 26.5 62C22 62 17 61 17 61V58Z" fill="#E05A33"/>
<path d="M17 58H36V60C36 60 33 61.5 26.5 61.5C20 61.5 17 60 17 60V58Z" fill="#C53926"/>
<path d="M16.5 59C16.5 57.8954 17.3954 57 18.5 57H34.5C35.6046 57 36.5 57.8954 36.5 59C36.5 59 31.5 60 26.5 60C21.5 60 16.5 59 16.5 59Z" fill="#E05A33"/>
</g>
<defs>
<clipPath id="clip0_166_8">
<rect width="64" height="64" fill="white"/>
</clipPath>
</defs>

<circle cx="30.2689" cy="36.2689" r="4.26891" stroke="black" stroke-width="2"/>
<circle cx="44.2689" cy="36.2689" r="4.26891" stroke="black" stroke-width="2"/>
<line x1="33.9852" y1="35.1056" x2="40.9852" y2="35.002" stroke="black" stroke-width="2"/>

<g transform="translate(0, 0)">
<path d="M26.5 45C26.5 45 31 44.5 37.5 43V45C36 45.6667 32 46.6 30 47C27.5 47.5 26.5 45 26.5 45Z" fill="#1B0B47"/>
<path d="M48 44.7558C48 44.7558 44 44 38 43V45C39.4286 45.5853 42.5952 46.1488 44.5 46.5C46.881 46.939 48 44.7558 48 44.7558Z" fill="#1B0B47"/>
<path d="M33.3106 55.2425C33.1528 54.6114 33.6302 54 34.2808 54H37.7192C38.3698 54 38.8472 54.6114 38.6894 55.2425L38.4394 56.2425C38.3281 56.6877 37.9281 57 37.4692 57H34.5308C34.0719 57 33.6719 56.6877 33.5606 56.2425L33.3106 55.2425Z" fill="#1B0B47"/>
</g>
</svg>